<mxfile host="Electron" modified="2023-10-19T09:37:22.279Z" agent="Mozilla/5.0 (Windows NT 10.0; Win64; x64) AppleWebKit/537.36 (KHTML, like Gecko) draw.io/21.6.8 Chrome/114.0.5735.289 Electron/25.5.0 Safari/537.36" etag="bnDWSUpIzZDLFWghcWfE" version="21.6.8" type="device">
  <diagram name="Page-1" id="PagtxalJhACX9Vw4-jbS">
    <mxGraphModel dx="3807" dy="1874" grid="1" gridSize="10" guides="1" tooltips="1" connect="1" arrows="1" fold="1" page="1" pageScale="1" pageWidth="850" pageHeight="1100" math="0" shadow="0">
      <root>
        <mxCell id="0" />
        <mxCell id="1" parent="0" />
        <mxCell id="k6tVHQrsbbQDaXtHc1t3-8" value="Visit&amp;nbsp; Website" style="rounded=1;whiteSpace=wrap;html=1;arcSize=40;labelBackgroundColor=none;" parent="1" vertex="1">
          <mxGeometry x="-2040" y="-585" width="120" height="40" as="geometry" />
        </mxCell>
        <mxCell id="k6tVHQrsbbQDaXtHc1t3-9" value="" style="edgeStyle=orthogonalEdgeStyle;html=1;verticalAlign=bottom;endArrow=open;endSize=8;rounded=0;exitX=0.5;exitY=1;exitDx=0;exitDy=0;labelBackgroundColor=none;fontColor=default;" parent="1" source="k6tVHQrsbbQDaXtHc1t3-8" target="k6tVHQrsbbQDaXtHc1t3-10" edge="1">
          <mxGeometry relative="1" as="geometry">
            <mxPoint x="-2050" y="-565" as="targetPoint" />
            <Array as="points" />
          </mxGeometry>
        </mxCell>
        <mxCell id="k6tVHQrsbbQDaXtHc1t3-10" value="Enter Username and Password" style="rounded=1;whiteSpace=wrap;html=1;arcSize=40;labelBackgroundColor=none;" parent="1" vertex="1">
          <mxGeometry x="-2040" y="-485" width="120" height="40" as="geometry" />
        </mxCell>
        <mxCell id="k6tVHQrsbbQDaXtHc1t3-12" value="" style="ellipse;html=1;shape=startState;labelBackgroundColor=none;strokeColor=#000000;fillColor=#000000;" parent="1" vertex="1">
          <mxGeometry x="-1995" y="-685" width="30" height="30" as="geometry" />
        </mxCell>
        <mxCell id="k6tVHQrsbbQDaXtHc1t3-13" value="" style="edgeStyle=orthogonalEdgeStyle;html=1;verticalAlign=bottom;endArrow=open;endSize=8;rounded=0;entryX=0.5;entryY=0;entryDx=0;entryDy=0;labelBackgroundColor=none;fontColor=default;" parent="1" source="k6tVHQrsbbQDaXtHc1t3-12" target="k6tVHQrsbbQDaXtHc1t3-8" edge="1">
          <mxGeometry relative="1" as="geometry">
            <mxPoint x="-1965" y="-475" as="targetPoint" />
          </mxGeometry>
        </mxCell>
        <mxCell id="k6tVHQrsbbQDaXtHc1t3-11" value="" style="edgeStyle=orthogonalEdgeStyle;html=1;verticalAlign=bottom;endArrow=open;endSize=8;rounded=0;exitX=0.5;exitY=1;exitDx=0;exitDy=0;entryX=0.5;entryY=0;entryDx=0;entryDy=0;labelBackgroundColor=none;fontColor=default;" parent="1" source="k6tVHQrsbbQDaXtHc1t3-16" target="k6tVHQrsbbQDaXtHc1t3-18" edge="1">
          <mxGeometry relative="1" as="geometry">
            <mxPoint x="-1770" y="-555" as="targetPoint" />
            <mxPoint x="-1820" y="-315" as="sourcePoint" />
          </mxGeometry>
        </mxCell>
        <mxCell id="k6tVHQrsbbQDaXtHc1t3-16" value="Validate Username and Password" style="rounded=1;whiteSpace=wrap;html=1;arcSize=40;labelBackgroundColor=none;" parent="1" vertex="1">
          <mxGeometry x="-2040" y="-385" width="120" height="40" as="geometry" />
        </mxCell>
        <mxCell id="k6tVHQrsbbQDaXtHc1t3-17" value="" style="edgeStyle=orthogonalEdgeStyle;html=1;verticalAlign=bottom;endArrow=open;endSize=8;rounded=0;exitX=0.5;exitY=1;exitDx=0;exitDy=0;labelBackgroundColor=none;fontColor=default;" parent="1" source="k6tVHQrsbbQDaXtHc1t3-10" target="k6tVHQrsbbQDaXtHc1t3-16" edge="1">
          <mxGeometry relative="1" as="geometry">
            <mxPoint x="-1710" y="-625" as="targetPoint" />
            <mxPoint x="-1760" y="-245" as="sourcePoint" />
          </mxGeometry>
        </mxCell>
        <mxCell id="k6tVHQrsbbQDaXtHc1t3-18" value="" style="rhombus;whiteSpace=wrap;html=1;labelBackgroundColor=none;" parent="1" vertex="1">
          <mxGeometry x="-2020" y="-275" width="80" height="40" as="geometry" />
        </mxCell>
        <mxCell id="k6tVHQrsbbQDaXtHc1t3-19" value="Not Valid" style="edgeStyle=orthogonalEdgeStyle;html=1;align=left;verticalAlign=bottom;endArrow=open;endSize=8;rounded=0;labelBackgroundColor=none;fontColor=default;" parent="1" source="k6tVHQrsbbQDaXtHc1t3-18" target="k6tVHQrsbbQDaXtHc1t3-8" edge="1">
          <mxGeometry x="-1" relative="1" as="geometry">
            <mxPoint x="-1830" y="-255" as="targetPoint" />
            <Array as="points">
              <mxPoint x="-1800" y="-255" />
              <mxPoint x="-1800" y="-615" />
              <mxPoint x="-1980" y="-615" />
            </Array>
          </mxGeometry>
        </mxCell>
        <mxCell id="k6tVHQrsbbQDaXtHc1t3-21" value="" style="edgeStyle=orthogonalEdgeStyle;html=1;verticalAlign=bottom;endArrow=open;endSize=8;rounded=0;exitX=0;exitY=0.5;exitDx=0;exitDy=0;entryX=0.5;entryY=0;entryDx=0;entryDy=0;labelBackgroundColor=none;fontColor=default;" parent="1" source="k6tVHQrsbbQDaXtHc1t3-18" target="k6tVHQrsbbQDaXtHc1t3-22" edge="1">
          <mxGeometry relative="1" as="geometry">
            <mxPoint x="-1970" y="-375" as="targetPoint" />
            <mxPoint x="-1970" y="-435" as="sourcePoint" />
            <Array as="points">
              <mxPoint x="-2060" y="-255" />
              <mxPoint x="-2060" y="-185" />
            </Array>
          </mxGeometry>
        </mxCell>
        <mxCell id="k6tVHQrsbbQDaXtHc1t3-25" value="Valid" style="edgeLabel;html=1;align=center;verticalAlign=middle;resizable=0;points=[];labelBackgroundColor=none;" parent="k6tVHQrsbbQDaXtHc1t3-21" vertex="1" connectable="0">
          <mxGeometry x="-0.75" relative="1" as="geometry">
            <mxPoint x="5" y="-10" as="offset" />
          </mxGeometry>
        </mxCell>
        <mxCell id="k6tVHQrsbbQDaXtHc1t3-22" value="Collect Feedback" style="rounded=1;whiteSpace=wrap;html=1;arcSize=40;labelBackgroundColor=none;" parent="1" vertex="1">
          <mxGeometry x="-2120" y="-175" width="120" height="40" as="geometry" />
        </mxCell>
        <mxCell id="k6tVHQrsbbQDaXtHc1t3-28" value="" style="edgeStyle=orthogonalEdgeStyle;html=1;verticalAlign=bottom;endArrow=open;endSize=8;rounded=0;exitX=0.5;exitY=1;exitDx=0;exitDy=0;entryX=0.5;entryY=0;entryDx=0;entryDy=0;labelBackgroundColor=none;fontColor=default;" parent="1" source="k6tVHQrsbbQDaXtHc1t3-29" target="k6tVHQrsbbQDaXtHc1t3-32" edge="1">
          <mxGeometry relative="1" as="geometry">
            <mxPoint x="-2060" y="25" as="targetPoint" />
            <mxPoint x="-1895" y="-15" as="sourcePoint" />
          </mxGeometry>
        </mxCell>
        <mxCell id="k6tVHQrsbbQDaXtHc1t3-29" value="Check Feedback Ratings" style="rounded=1;whiteSpace=wrap;html=1;arcSize=40;labelBackgroundColor=none;" parent="1" vertex="1">
          <mxGeometry x="-2120" y="-85" width="120" height="40" as="geometry" />
        </mxCell>
        <mxCell id="k6tVHQrsbbQDaXtHc1t3-30" value="" style="edgeStyle=orthogonalEdgeStyle;html=1;verticalAlign=bottom;endArrow=open;endSize=8;rounded=0;exitX=0.5;exitY=1;exitDx=0;exitDy=0;entryX=0.5;entryY=0;entryDx=0;entryDy=0;labelBackgroundColor=none;fontColor=default;" parent="1" source="k6tVHQrsbbQDaXtHc1t3-22" target="k6tVHQrsbbQDaXtHc1t3-29" edge="1">
          <mxGeometry relative="1" as="geometry">
            <mxPoint x="-2050" y="-165" as="targetPoint" />
            <mxPoint x="-2010" y="-245" as="sourcePoint" />
            <Array as="points">
              <mxPoint x="-2060" y="-135" />
            </Array>
          </mxGeometry>
        </mxCell>
        <mxCell id="k6tVHQrsbbQDaXtHc1t3-32" value="" style="rhombus;whiteSpace=wrap;html=1;labelBackgroundColor=none;" parent="1" vertex="1">
          <mxGeometry x="-2100" y="25" width="80" height="40" as="geometry" />
        </mxCell>
        <mxCell id="k6tVHQrsbbQDaXtHc1t3-34" value="" style="edgeStyle=orthogonalEdgeStyle;html=1;align=left;verticalAlign=top;endArrow=open;endSize=8;rounded=0;labelBackgroundColor=none;fontColor=default;entryX=0.5;entryY=0;entryDx=0;entryDy=0;" parent="1" source="k6tVHQrsbbQDaXtHc1t3-32" target="k6tVHQrsbbQDaXtHc1t3-97" edge="1">
          <mxGeometry x="0.4194" y="20" relative="1" as="geometry">
            <mxPoint x="-2200" y="120" as="targetPoint" />
            <Array as="points">
              <mxPoint x="-2200" y="45" />
            </Array>
            <mxPoint as="offset" />
          </mxGeometry>
        </mxCell>
        <mxCell id="k6tVHQrsbbQDaXtHc1t3-40" value="Yes" style="edgeLabel;html=1;align=center;verticalAlign=middle;resizable=0;points=[];labelBackgroundColor=none;" parent="k6tVHQrsbbQDaXtHc1t3-34" vertex="1" connectable="0">
          <mxGeometry x="-0.8563" y="1" relative="1" as="geometry">
            <mxPoint y="-11" as="offset" />
          </mxGeometry>
        </mxCell>
        <mxCell id="k6tVHQrsbbQDaXtHc1t3-33" value="no" style="edgeStyle=orthogonalEdgeStyle;html=1;align=left;verticalAlign=bottom;endArrow=open;endSize=8;rounded=0;labelBackgroundColor=none;fontColor=default;" parent="1" source="k6tVHQrsbbQDaXtHc1t3-32" edge="1">
          <mxGeometry x="-1" relative="1" as="geometry">
            <mxPoint x="-1880" y="120" as="targetPoint" />
            <Array as="points">
              <mxPoint x="-1880" y="45" />
              <mxPoint x="-1880" y="120" />
            </Array>
          </mxGeometry>
        </mxCell>
        <mxCell id="k6tVHQrsbbQDaXtHc1t3-97" value="Ratings Provided" style="rounded=1;whiteSpace=wrap;html=1;arcSize=40;" parent="1" vertex="1">
          <mxGeometry x="-2260" y="120" width="120" height="40" as="geometry" />
        </mxCell>
        <mxCell id="k6tVHQrsbbQDaXtHc1t3-98" value="" style="edgeStyle=orthogonalEdgeStyle;html=1;verticalAlign=bottom;endArrow=open;endSize=8;rounded=0;entryX=0.5;entryY=0.307;entryDx=0;entryDy=0;entryPerimeter=0;" parent="1" source="k6tVHQrsbbQDaXtHc1t3-97" target="k6tVHQrsbbQDaXtHc1t3-101" edge="1">
          <mxGeometry relative="1" as="geometry">
            <mxPoint x="-2200" y="200" as="targetPoint" />
          </mxGeometry>
        </mxCell>
        <mxCell id="k6tVHQrsbbQDaXtHc1t3-99" value="No Ratings" style="rounded=1;whiteSpace=wrap;html=1;arcSize=40;" parent="1" vertex="1">
          <mxGeometry x="-1940" y="120" width="120" height="40" as="geometry" />
        </mxCell>
        <mxCell id="k6tVHQrsbbQDaXtHc1t3-100" value="" style="edgeStyle=orthogonalEdgeStyle;html=1;verticalAlign=bottom;endArrow=open;endSize=8;rounded=0;entryX=1;entryY=0.5;entryDx=0;entryDy=0;" parent="1" source="k6tVHQrsbbQDaXtHc1t3-99" edge="1" target="DasX_CSCzP6kREExLVa--10">
          <mxGeometry relative="1" as="geometry">
            <mxPoint x="-1880" y="200" as="targetPoint" />
            <Array as="points">
              <mxPoint x="-1880" y="180" />
              <mxPoint x="-1879" y="490" />
            </Array>
          </mxGeometry>
        </mxCell>
        <mxCell id="k6tVHQrsbbQDaXtHc1t3-101" value="" style="shape=line;html=1;strokeWidth=6;strokeColor=#000000;fillColor=#000000;" parent="1" vertex="1">
          <mxGeometry x="-2300" y="200" width="200" height="10" as="geometry" />
        </mxCell>
        <mxCell id="DasX_CSCzP6kREExLVa--2" value="Send Thankyou Email" style="html=1;shape=mxgraph.sysml.callBehAct;whiteSpace=wrap;align=center;" vertex="1" parent="1">
          <mxGeometry x="-2300" y="270" width="100" height="70" as="geometry" />
        </mxCell>
        <mxCell id="DasX_CSCzP6kREExLVa--3" value="" style="edgeStyle=orthogonalEdgeStyle;html=1;verticalAlign=bottom;endArrow=open;endSize=8;rounded=0;entryX=0.5;entryY=0;entryDx=0;entryDy=0;entryPerimeter=0;exitX=0.25;exitY=0.5;exitDx=0;exitDy=0;exitPerimeter=0;" edge="1" parent="1" source="k6tVHQrsbbQDaXtHc1t3-101" target="DasX_CSCzP6kREExLVa--2">
          <mxGeometry relative="1" as="geometry">
            <mxPoint x="-2250" y="263" as="targetPoint" />
            <mxPoint x="-2250" y="220" as="sourcePoint" />
          </mxGeometry>
        </mxCell>
        <mxCell id="DasX_CSCzP6kREExLVa--4" value="Enter Ratings to the Report" style="rounded=1;whiteSpace=wrap;html=1;arcSize=40;" vertex="1" parent="1">
          <mxGeometry x="-2185" y="285" width="120" height="40" as="geometry" />
        </mxCell>
        <mxCell id="DasX_CSCzP6kREExLVa--5" value="" style="edgeStyle=orthogonalEdgeStyle;html=1;verticalAlign=bottom;endArrow=open;endSize=8;rounded=0;entryX=0.749;entryY=0.284;entryDx=0;entryDy=0;entryPerimeter=0;" edge="1" parent="1" target="DasX_CSCzP6kREExLVa--7">
          <mxGeometry relative="1" as="geometry">
            <mxPoint x="-2125" y="380" as="targetPoint" />
            <mxPoint x="-2150" y="330" as="sourcePoint" />
            <Array as="points">
              <mxPoint x="-2150" y="325" />
              <mxPoint x="-2150" y="358" />
              <mxPoint x="-2150" y="358" />
            </Array>
          </mxGeometry>
        </mxCell>
        <mxCell id="DasX_CSCzP6kREExLVa--6" value="" style="edgeStyle=orthogonalEdgeStyle;html=1;verticalAlign=bottom;endArrow=open;endSize=8;rounded=0;entryX=0.299;entryY=0.023;entryDx=0;entryDy=0;entryPerimeter=0;exitX=0.75;exitY=0.5;exitDx=0;exitDy=0;exitPerimeter=0;" edge="1" parent="1" source="k6tVHQrsbbQDaXtHc1t3-101" target="DasX_CSCzP6kREExLVa--4">
          <mxGeometry relative="1" as="geometry">
            <mxPoint x="-2130" y="285" as="targetPoint" />
            <mxPoint x="-2130" y="220" as="sourcePoint" />
          </mxGeometry>
        </mxCell>
        <mxCell id="DasX_CSCzP6kREExLVa--7" value="" style="shape=line;html=1;strokeWidth=6;strokeColor=#000000;" vertex="1" parent="1">
          <mxGeometry x="-2300" y="390" width="200" height="10" as="geometry" />
        </mxCell>
        <mxCell id="DasX_CSCzP6kREExLVa--8" value="" style="edgeStyle=orthogonalEdgeStyle;html=1;verticalAlign=bottom;endArrow=open;endSize=8;rounded=0;" edge="1" source="DasX_CSCzP6kREExLVa--7" parent="1">
          <mxGeometry relative="1" as="geometry">
            <mxPoint x="-2200" y="470" as="targetPoint" />
          </mxGeometry>
        </mxCell>
        <mxCell id="DasX_CSCzP6kREExLVa--9" value="" style="edgeStyle=orthogonalEdgeStyle;html=1;verticalAlign=bottom;endArrow=open;endSize=8;rounded=0;exitX=0.75;exitY=0.5;exitDx=0;exitDy=0;exitPerimeter=0;entryX=0.25;entryY=0.5;entryDx=0;entryDy=0;entryPerimeter=0;" edge="1" parent="1" target="DasX_CSCzP6kREExLVa--7">
          <mxGeometry relative="1" as="geometry">
            <mxPoint x="-2250" y="390" as="targetPoint" />
            <mxPoint x="-2250.76" y="340" as="sourcePoint" />
          </mxGeometry>
        </mxCell>
        <mxCell id="DasX_CSCzP6kREExLVa--10" value="" style="rhombus;whiteSpace=wrap;html=1;" vertex="1" parent="1">
          <mxGeometry x="-2240" y="470" width="80" height="40" as="geometry" />
        </mxCell>
        <mxCell id="DasX_CSCzP6kREExLVa--12" value="" style="edgeStyle=orthogonalEdgeStyle;html=1;align=left;verticalAlign=top;endArrow=open;endSize=8;rounded=0;entryX=0.5;entryY=0;entryDx=0;entryDy=0;entryPerimeter=0;" edge="1" source="DasX_CSCzP6kREExLVa--10" parent="1" target="DasX_CSCzP6kREExLVa--13">
          <mxGeometry x="-1" relative="1" as="geometry">
            <mxPoint x="-2200" y="600" as="targetPoint" />
          </mxGeometry>
        </mxCell>
        <mxCell id="DasX_CSCzP6kREExLVa--13" value="Analyse Feedback" style="html=1;shape=mxgraph.sysml.callBehAct;whiteSpace=wrap;align=center;" vertex="1" parent="1">
          <mxGeometry x="-2250" y="600" width="100" height="70" as="geometry" />
        </mxCell>
        <mxCell id="DasX_CSCzP6kREExLVa--16" value="" style="ellipse;html=1;shape=endState;fillColor=#000000;strokeColor=#000000;" vertex="1" parent="1">
          <mxGeometry x="-2215" y="740" width="30" height="30" as="geometry" />
        </mxCell>
        <mxCell id="DasX_CSCzP6kREExLVa--18" value="" style="edgeStyle=orthogonalEdgeStyle;html=1;align=left;verticalAlign=top;endArrow=open;endSize=8;rounded=0;entryX=0.5;entryY=0;entryDx=0;entryDy=0;exitX=0.5;exitY=1;exitDx=0;exitDy=0;exitPerimeter=0;" edge="1" parent="1" source="DasX_CSCzP6kREExLVa--13" target="DasX_CSCzP6kREExLVa--16">
          <mxGeometry x="-1" relative="1" as="geometry">
            <mxPoint x="-2190" y="770" as="targetPoint" />
            <mxPoint x="-2190" y="680" as="sourcePoint" />
          </mxGeometry>
        </mxCell>
        <mxCell id="DasX_CSCzP6kREExLVa--20" value="" style="swimlane;startSize=0;fillColor=#dae8fc;strokeColor=#6c8ebf;" vertex="1" parent="1">
          <mxGeometry x="-2430" y="-760" width="830" height="1600" as="geometry" />
        </mxCell>
        <mxCell id="DasX_CSCzP6kREExLVa--21" value="&lt;font style=&quot;font-size: 20px;&quot;&gt;Collect Customer Feedback and Ratings&lt;/font&gt;" style="rounded=0;whiteSpace=wrap;html=1;fillColor=#ffe6cc;strokeColor=#d79b00;" vertex="1" parent="DasX_CSCzP6kREExLVa--20">
          <mxGeometry width="400" height="50" as="geometry" />
        </mxCell>
      </root>
    </mxGraphModel>
  </diagram>
</mxfile>
